Coordinates
version=1
nRows=33
nColumns=33
inDegrees=yes

Units are S.I. units (second, meters, Newtons, ...)
Angles are in degrees.

endheader
time	ground_thorax_rot_x	ground_thorax_rot_y	ground_thorax_rot_z	ground_thorax_tx	ground_thorax_ty	ground_thorax_tz	clav_prot_r	clav_elev_r	scapula_abduction_r	scapula_elevation_r	scapula_upward_rot_r	scapula_winging_r	shoulder_elv_r	plane_of_elev_r	axial_rot_r	elbow_flexion_r	pro_sup_r	wrist_flex_r	wrist_dev_r	clav_prot_l	clav_elev_l	scapula_abduction_l	scapula_elevation_l	scapula_upward_rot_l	scapula_winging_l	shoulder_elv_l	plane_of_elev_l	axial_rot_l	elbow_flexion_l	pro_sup_l	wrist_flex_l	wrist_dev_l	
1.1600	25.298132	45.866411	-1.852025	0.024511	1.005085	-0.051408	-25.019609	23.347439	-20.251872	15.135575	44.999405	-15.009417	22.153330	-84.964044	26.827504	86.908654	-10.574777	17.508240	-2.964846	23.564871	-23.498612	-45.000000	-2.777741	-43.462446	13.416907	61.362173	13.100702	-14.237323	56.792914	3.869289	32.468017	-9.625473	
1.1700	25.492719	46.397023	-2.575445	0.026027	1.006784	-0.052612	-26.396469	21.683675	-21.358798	13.664508	44.998976	-15.775180	35.324619	-82.016828	40.326745	87.028124	-11.832982	16.705134	-2.797103	23.796867	-24.218263	-45.000000	-1.867302	-42.518481	13.074173	61.286705	13.005867	-14.561206	55.717715	3.304492	32.820814	-9.038781	
1.1800	25.746583	47.040680	-3.464632	0.027804	1.008879	-0.053994	-28.122956	19.666505	-22.831614	11.875754	44.998050	-16.710559	51.112638	-78.534639	56.586039	87.244028	-13.262147	15.915317	-2.705729	24.072186	-25.023178	-45.000000	-0.806832	-41.348689	12.680856	61.133918	12.745776	-14.956805	54.607278	2.729807	33.173712	-8.431719	
1.1900	25.974104	47.641746	-4.274364	0.029451	1.010828	-0.055331	-29.680554	17.812166	-24.153735	10.234648	44.996830	-17.543898	65.113742	-75.386872	71.084892	87.336939	-14.788401	15.207442	-2.625618	24.335533	-25.796372	-45.000000	0.206450	-40.244654	12.290745	60.942645	12.532574	-15.268293	53.457011	2.339609	33.599969	-7.903417	
1.2000	26.169601	48.177548	-4.981761	0.030927	1.012551	-0.056612	-31.008194	16.180282	-25.261754	8.795066	44.993417	-18.245377	76.878958	-72.661880	83.349280	87.287071	-16.381986	14.575942	-2.545202	24.578364	-26.517625	-45.000000	1.141475	-39.248063	11.913890	60.716666	12.402055	-15.476813	52.275391	2.127487	34.088079	-7.454682	
1.2100	26.267348	48.520608	-5.415671	0.031920	1.013606	-0.057640	-31.714625	15.191380	-25.779918	7.932136	44.990735	-18.614281	83.128572	-70.977915	90.004620	86.924502	-18.009116	14.040107	-2.400347	24.753994	-27.082968	-45.000000	1.831660	-38.592817	11.600958	60.493106	12.554541	-15.452115	51.040219	2.173808	34.672921	-7.131165	
1.2200	26.283926	48.689406	-5.626836	0.032511	1.014104	-0.058447	-31.899644	14.740620	-25.801809	7.552446	44.988718	-18.703902	84.899197	-70.122226	92.092687	86.295512	-19.566340	13.584868	-2.215328	24.873028	-27.517888	-45.000000	2.316372	-38.225105	11.341622	60.276927	12.930087	-15.232035	49.772516	2.389225	35.269884	-6.890777	
1.2300	26.220990	48.710229	-5.638857	0.032759	1.014135	-0.059047	-31.651370	14.756455	-25.416069	7.589061	44.989691	-18.566792	82.910974	-69.944682	90.362110	85.425381	-21.031320	13.201033	-1.999502	24.943472	-27.835732	-45.000000	2.623513	-38.095177	11.134214	60.059107	13.490341	-14.846531	48.472758	2.738976	35.845165	-6.706813	
1.2400	26.140207	48.725409	-5.621571	0.032994	1.014154	-0.059627	-31.399928	14.803810	-25.041337	7.650391	44.990997	-18.432730	80.844508	-69.747152	88.581928	84.505251	-22.364530	12.824987	-1.806374	25.011006	-28.136339	-45.000000	2.916426	-37.967570	10.934188	59.814664	14.037063	-14.467083	47.164925	3.065556	36.341240	-6.498246	
1.2500	26.045219	48.740428	-5.586596	0.033214	1.014165	-0.060179	-31.148635	14.875889	-24.677408	7.730609	44.994559	-18.303052	78.719907	-69.539996	86.766869	83.543659	-23.577647	12.452902	-1.630699	25.077046	-28.426181	-45.000000	3.201347	-37.839518	10.737747	59.556163	14.570943	-14.087138	45.842271	3.374124	36.773129	-6.270399	
1.2600	25.949049	48.755618	-5.545835	0.033432	1.014161	-0.060712	-30.896576	14.959730	-24.317858	7.820242	44.997527	-18.175163	76.617276	-69.313919	84.973341	82.553599	-24.637890	12.075764	-1.461891	25.142856	-28.715951	-45.000000	3.484088	-37.718734	10.538618	59.302724	15.085747	-13.707851	44.518276	3.664707	37.166270	-6.034244	
1.2700	25.850410	48.768562	-5.500619	0.033654	1.014160	-0.061226	-30.649135	15.039325	-23.962122	7.906171	45.000000	-18.050838	74.562868	-69.064774	83.233246	81.543897	-25.606175	11.697010	-1.291397	25.208237	-29.009222	-45.000000	3.763807	-37.615833	10.334126	59.064797	15.582528	-13.306414	43.192701	3.951741	37.522613	-5.802842	
1.2800	25.755317	48.789553	-5.443723	0.033882	1.014140	-0.061735	-30.405172	15.126592	-23.616757	7.998077	45.000000	-17.930183	72.587098	-68.790611	81.577445	80.512240	-26.477751	11.322854	-1.126341	25.272078	-29.306739	-45.000000	4.036218	-37.544101	10.124472	58.854388	16.065690	-12.923081	41.877907	4.238332	37.842877	-5.579664	
1.2900	25.657723	48.822179	-5.382777	0.034118	1.014148	-0.062225	-30.173154	15.189842	-23.275985	8.070037	45.000000	-17.814663	70.738355	-68.511367	80.044672	79.463989	-27.271798	10.965512	-0.971933	25.336341	-29.615523	-45.000000	4.309167	-37.497993	9.904565	58.676799	16.528897	-12.533517	40.555275	4.521509	38.101101	-5.370331	
1.3000	25.566551	48.854381	-5.331010	0.034345	1.014092	-0.062695	-29.941427	15.285910	-22.953198	8.167714	45.000000	-17.702829	68.818038	-68.216943	78.446518	78.378076	-28.094714	10.620081	-0.797898	25.394439	-29.907972	-45.000000	4.554878	-37.490221	9.695456	58.514024	17.045289	-12.106446	39.197236	4.812207	38.373918	-5.180791	
1.3100	25.475454	48.872386	-5.284236	0.034564	1.014018	-0.063127	-29.709302	15.398374	-22.638223	8.278419	45.000000	-17.592354	66.829005	-67.899014	76.788868	77.247791	-28.931884	10.300860	-0.614901	25.447657	-30.193233	-45.000000	4.778478	-37.527201	9.491020	58.372458	17.593376	-11.594412	37.808848	5.106254	38.615298	-5.023360	
1.3200	25.385304	48.876178	-5.240209	0.034766	1.013870	-0.063531	-29.472565	15.560673	-22.342792	8.428610	45.000000	-17.484632	64.680976	-67.553775	75.003298	76.065451	-29.838771	9.994407	-0.405475	25.492431	-30.452014	-45.000000	4.964939	-37.606244	9.305184	58.235795	18.202198	-11.010444	36.390561	5.406396	38.881646	-4.889581	
1.3300	25.290297	48.877871	-5.193128	0.034968	1.013737	-0.063906	-29.244134	15.717203	-22.056471	8.573538	45.000000	-17.381553	62.554979	-67.191021	73.257350	74.846158	-30.729504	9.714715	-0.191241	25.534133	-30.707816	-45.000000	5.137281	-37.717781	9.120870	58.117750	18.816927	-10.364653	34.960961	5.697643	39.100096	-4.768819	
1.3400	25.194175	48.876959	-5.152496	0.035170	1.013572	-0.064272	-29.019849	15.882050	-21.780404	8.724590	45.000000	-17.282565	60.412844	-66.812254	71.520234	73.592244	-31.644613	9.450888	0.044151	25.569572	-30.943342	-45.000000	5.282509	-37.857882	8.950867	58.007469	19.468742	-9.669947	33.523147	5.976772	39.315679	-4.645115	
1.3500	25.098882	48.884055	-5.108231	0.035378	1.013425	-0.064618	-28.799829	16.039106	-21.506221	8.869265	45.000000	-17.185346	58.349092	-66.431801	69.876785	72.312849	-32.533220	9.221587	0.265244	25.601915	-31.184691	-45.000000	5.414909	-38.046438	8.777293	57.941339	20.120337	-8.948199	32.102839	6.241282	39.459006	-4.509746	
1.3600	25.001341	48.915599	-5.055510	0.035605	1.013311	-0.064962	-28.592968	16.164869	-21.234759	8.988206	45.000000	-17.093233	56.473928	-66.061586	68.431863	71.030237	-33.358835	9.004879	0.473490	25.633025	-31.433512	-45.000000	5.542505	-38.265599	8.598305	57.915725	20.747124	-8.249286	30.722014	6.480500	39.545952	-4.343498	
1.3700	24.919003	48.973053	-5.011869	0.035846	1.013212	-0.065297	-28.396345	16.279022	-20.973342	9.097179	45.000000	-17.005010	54.735866	-65.705213	67.114629	69.744533	-34.142500	8.813281	0.675746	25.662632	-31.696179	-45.000000	5.665433	-38.529196	8.410018	57.941772	21.374938	-7.554899	29.363278	6.693963	39.582613	-4.140094	
1.3800	24.844841	49.048277	-4.975252	0.036095	1.013119	-0.065620	-28.211084	16.385604	-20.725549	9.199092	45.000000	-16.922634	53.077799	-65.356820	65.879513	68.457474	-34.900060	8.622752	0.878805	25.690116	-31.960701	-45.000000	5.780664	-38.818771	8.219956	58.002888	21.996714	-6.861602	28.035921	6.878942	39.593198	-3.910567	
1.3900	24.794392	49.126579	-4.954773	0.036338	1.012990	-0.065915	-28.021230	16.528430	-20.491192	9.330016	45.000000	-16.839902	51.384762	-65.004637	64.610986	67.157296	-35.659829	8.449993	1.081437	25.712555	-32.233053	-45.000000	5.878749	-39.172990	8.025554	58.132054	22.644723	-6.134172	26.734024	7.038296	39.568619	-3.655561	
1.4000	24.748111	49.214129	-4.937461	0.036593	1.012913	-0.066193	-27.845391	16.639722	-20.260802	9.434827	45.000000	-16.763041	49.827461	-64.654720	63.481289	65.873172	-36.332566	8.260493	1.271771	25.735973	-32.517484	-45.000000	5.983760	-39.537020	7.820893	58.301482	23.235689	-5.410596	25.493398	7.155754	39.492496	-3.383336	
1.4100	24.717746	49.302533	-4.937547	0.036847	1.012835	-0.066449	-27.676517	16.756552	-20.045150	9.543415	45.000000	-16.689647	48.301296	-64.288623	62.377740	64.592780	-36.976544	8.071642	1.477399	25.754969	-32.806350	-45.000000	6.076886	-39.943994	7.613510	58.525313	23.838532	-4.634146	24.273721	7.222530	39.388667	-3.080870	
1.4200	24.682694	49.396640	-4.938073	0.037105	1.012819	-0.066685	-27.523978	16.835717	-19.833854	9.620794	45.000000	-16.622851	46.893073	-63.924521	61.391741	63.333362	-37.550004	7.860861	1.667058	25.773932	-33.100159	-45.000000	6.174531	-40.351219	7.400837	58.784740	24.382666	-3.856903	23.112506	7.243105	39.242976	-2.771611	
1.4300	24.648369	49.493527	-4.943162	0.037357	1.012812	-0.066886	-27.378811	16.923381	-19.639866	9.704144	45.000000	-16.559827	45.472115	-63.553727	60.394688	62.076499	-38.125744	7.646981	1.855214	25.787438	-33.390173	-45.000000	6.256233	-40.793683	7.191375	59.098723	24.925969	-3.040178	21.988214	7.227600	39.080820	-2.455577	
1.4400	24.610343	49.596963	-4.942678	0.037610	1.012833	-0.067061	-27.236932	17.004650	-19.447265	9.782173	45.000000	-16.498206	44.104118	-63.193293	59.459558	60.833392	-38.676112	7.420692	2.013106	25.796523	-33.680899	-45.000000	6.329925	-41.260306	6.981140	59.475612	25.422179	-2.243554	20.947742	7.182182	38.908455	-2.143665	
1.4500	24.578238	49.703082	-4.948278	0.037859	1.012850	-0.067205	-27.095340	17.104904	-19.266351	9.875170	45.000000	-16.437301	42.720055	-62.827604	58.519791	59.589677	-39.251901	7.207800	2.164848	25.798923	-33.966733	-45.000000	6.386143	-41.763820	6.775093	59.921942	25.909343	-1.434935	19.977808	7.143559	38.766555	-1.845799	
1.4600	24.552073	49.819014	-4.959158	0.038114	1.012884	-0.067336	-26.954884	17.198776	-19.083115	9.963056	45.000000	-16.377033	41.407802	-62.478401	57.670686	58.363562	-39.823231	7.002223	2.285058	25.799538	-34.248291	-45.000000	6.440948	-42.262562	6.570809	60.422500	26.327159	-0.698327	19.138449	7.183010	38.689135	-1.602092	
1.4700	24.534039	49.941111	-4.983546	0.038378	1.012916	-0.067433	-26.819754	17.306830	-18.917557	10.061706	45.000000	-16.319250	40.094165	-62.111794	56.861151	57.124853	-40.463614	6.843347	2.406363	25.798222	-34.527899	-45.000000	6.493699	-42.764117	6.366303	61.010532	26.687828	0.026696	18.441653	7.405750	38.750860	-1.453512	
1.4800	24.529126	50.079433	-5.018342	0.038661	1.012930	-0.067500	-26.689017	17.428567	-18.768005	10.170793	45.000000	-16.263467	38.815233	-61.752144	56.119267	55.893890	-41.171298	6.730595	2.511417	25.796699	-34.806741	-45.000000	6.549722	-43.256609	6.160334	61.690704	26.965675	0.694985	17.942281	7.958524	39.029400	-1.460635	
